:SAMPLES-PER-SECOND 30
:FULLY-SPECIFIED
:DEGREES
361
root  49.8747 39.4038 -7.20105 -178.949 -69.4684 176.211
RightUpLeg  7.58355 -11.1916 -4.28492
RightLeg  15.0863 -4.06626 2.90754
RightFoot  -16.8066 -0.232022 -2.49116
RightToes  0.00048216 0.542163 -0.142577
Spine  9.4522 1.04104 7.61389
Spine1  6.9887 3.04881 -5.30592
HEad  -12.4925 7.30964 -7.79721
LeftShoulder1  8.09814 -12.4391 -44.2277
LeftArm  -6.44873 7.85068 -25.5026
LeftForeArm  35.8817 -6.42351 -6.56238
LeftHand  -0.25398 0.0180481 5.50724
RightShoulder  4.67126 8.49308 32.9955
RightArm  6.14478 1.63335 38.6981
RightForeArm  0.953793 25.5537 5.42918
RightHand  -2.26676 6.87115 -21.6251
LeftUpLeg  -19.902 9.92587 -2.78173
LeftLeg  12.6561 4.38321 0.0295452
LeftFoot  1.15437 0.259177 -2.42743
LeftToes  1.06247e-005 4.65855e-005 -8.18501e-006
362
root  48.4637 39.2518 -7.69818 -178.111 -68.604 175.437
RightUpLeg  10.5183 -11.2294 -5.46801
RightLeg  13.9835 -2.61448 3.21896
RightFoot  -17.9677 -0.182164 -1.07917
RightToes  0.00048216 0.542163 -0.142577
Spine  8.89387 1.27416 6.34212
Spine1  7.44461 3.19579 -5.26207
HEad  -12.7464 7.96732 -7.26036
LeftShoulder1  7.86994 -12.2247 -43.5325
LeftArm  -5.92168 12.7075 -23.9293
LeftForeArm  35.5313 -6.08227 -6.48788
LeftHand  -0.25398 0.0180481 5.50724
RightShoulder  4.69777 8.54238 33.0562
RightArm  7.08692 2.45328 38.3026
RightForeArm  2.26118 26.3486 5.54461
RightHand  -2.22961 7.01846 -21.0464
LeftUpLeg  -18.169 2.07848 0.262952
LeftLeg  0.744193 14.699 -4.73326
LeftFoot  0.791155 0.328944 -3.14514
LeftToes  1.06247e-005 4.65855e-005 -8.18501e-006
363
root  46.9303 38.9794 -8.16063 -178.5 -67.9286 175.721
RightUpLeg  13.2306 -11.7446 -6.57538
RightLeg  14.2638 -0.508838 3.26932
RightFoot  -19.1025 -0.0725971 0.85564
RightToes  0.00048216 0.542163 -0.142577
Spine  8.36141 1.43446 5.65424
Spine1  7.78616 3.28932 -5.08446
HEad  -13.1432 9.82353 -6.914
LeftShoulder1  7.68387 -12.0486 -42.9517
LeftArm  -5.11541 17.3123 -22.6527
LeftForeArm  36.1591 -5.95694 -6.49184
LeftHand  -0.25398 0.0180481 5.50724
RightShoulder  4.65596 8.47002 32.9428
RightArm  7.50362 2.64943 38.3533
RightForeArm  2.96525 26.4791 5.53773
RightHand  -2.24156 7.15418 -20.9369
LeftUpLeg  -17.7182 1.35575 0.32062
LeftLeg  -4.93843 19.0901 -6.92899
LeftFoot  -0.478298 0.236045 -2.41556
LeftToes  1.06247e-005 4.65855e-005 -8.18501e-006
364
root  45.3131 38.7088 -8.59439 -178.458 -67.6251 175.543
RightUpLeg  15.7011 -12.6675 -7.98199
RightLeg  15.2933 1.44443 2.87485
RightFoot  -19.3991 0.0340999 2.34508
RightToes  0.00048216 0.542163 -0.142577
Spine  7.84402 1.5396 4.95286
Spine1  8.12746 3.43665 -5.05734
HEad  -12.8084 11.3396 -6.73566
LeftShoulder1  7.52982 -11.8572 -42.5925
LeftArm  -4.38177 20.9224 -21.5307
LeftForeArm  37.1469 -5.23265 -6.45494
LeftHand  -0.25398 0.0180481 5.50724
RightShoulder  4.6096 8.37392 32.8674
RightArm  6.97517 1.71155 38.4694
RightForeArm  2.78402 26.5404 5.56143
RightHand  -2.24925 7.01298 -21.233
LeftUpLeg  -18.7324 1.4012 -0.541407
LeftLeg  -2.61624 22.927 -6.61094
LeftFoot  0.121059 -0.123466 1.12195
LeftToes  1.06247e-005 4.65855e-005 -8.18501e-006
365
root  43.5994 38.4063 -9.04956 -177.441 -67.5881 174.025
RightUpLeg  18.0363 -13.4827 -9.96183
RightLeg  17.4817 3.29582 2.1566
RightFoot  -19.4849 0.211354 4.75289
RightToes  0.00048216 0.542163 -0.142577
Spine  7.39941 1.86406 3.49629
Spine1  8.2953 3.61256 -4.63815
HEad  -12.2949 12.2974 -5.91297
LeftShoulder1  7.36735 -11.5922 -42.3912
LeftArm  -4.10077 23.2982 -20.5962
LeftForeArm  38.0808 -4.04835 -6.26605
LeftHand  -0.25398 0.0180481 5.50724
RightShoulder  4.63199 8.31874 33.2367
RightArm  5.45089 -0.479595 38.267
RightForeArm  2.53728 26.6337 5.59567
RightHand  -2.23921 6.849 -21.4098
LeftUpLeg  -20.5124 3.28729 -2.92433
LeftLeg  5.29162 21.875 -3.13035
LeftFoot  3.24855 -0.676768 5.10757
LeftToes  1.06247e-005 4.65855e-005 -8.18501e-006
